<svg xmlns="http://www.w3.org/2000/svg" width="134" height="157" fill="none" viewBox="0 0 134 157"><path fill="#E74C3C" d="M125.622 13.9607L123.942 27.9213L119.591 64.2144L109.463 148.627C109.127 151.421 106.745 153.544 103.933 153.544H30.0672C27.255 153.544 24.8791 151.415 24.5372 148.627L14.4027 64.2085L10.0518 27.9154L8.37158 13.9548H125.622V13.9607Z"/><path fill="#FAEFDE" d="M125.622 13.9607H8.37752C5.29415 13.9607 2.79443 11.461 2.79443 8.37758C2.79443 5.29421 5.28825 2.79449 8.37752 2.79449H125.622C128.706 2.79449 131.205 5.29421 131.205 8.37758C131.205 11.461 128.706 13.9607 125.622 13.9607Z"/><path fill="#E74C3C" d="M119.591 64.2085L110.878 136.789L109.463 148.621C109.127 151.415 106.745 153.538 103.933 153.538H30.0673C27.2551 153.538 24.8792 151.41 24.5372 148.621L23.1223 136.789L14.4087 64.2085H119.591Z"/><path fill="#E74C3C" d="M110.883 136.789L109.469 148.621C109.133 151.415 106.751 153.538 103.939 153.538H30.0673C27.2551 153.538 24.8792 151.41 24.5372 148.621L23.1223 136.789H110.883Z"/><path fill="#000" d="M134 8.37758C134 3.76726 130.239 0 125.622 0H8.37758C3.76136 0 0 3.76136 0 8.37758C0 12.1095 2.46434 15.2341 5.84249 16.3189L21.7664 148.957C22.2675 153.166 25.8461 156.338 30.0732 156.338H103.921C108.154 156.338 111.727 153.166 112.228 148.957L128.152 16.313C131.524 15.2341 133.994 12.1036 133.994 8.37168L134 8.37758ZM8.37758 5.58309H125.622C127.161 5.58309 128.417 6.83884 128.417 8.37758C128.417 9.91632 127.161 11.1721 125.622 11.1721H8.37758C6.83884 11.1721 5.58309 9.91632 5.58309 8.37758C5.58309 6.83884 6.83884 5.58309 8.37758 5.58309V5.58309ZM103.921 150.749H30.0732C28.6642 150.749 27.4674 149.694 27.3023 148.285L26.2529 139.583H107.741L106.692 148.285C106.515 149.694 105.33 150.749 103.921 150.749ZM108.402 134H25.5926L17.5452 67.0029H116.885C118.424 66.9971 117.263 65.7354 117.263 64.1967C117.263 62.6579 120.711 61.4317 119.173 61.4317L16.879 61.414L13.3888 32.3076C13.7131 31.8478 13.9548 31.3172 13.9548 30.704V25.1209C13.9548 23.9536 13.2355 22.9632 12.2097 22.5387L11.5199 16.7493H122.474L121.784 22.5387C120.759 22.9632 120.039 23.9536 120.039 25.1209V30.704C120.039 31.3172 120.281 31.8478 120.605 32.3076L108.402 133.994V134Z"/><path fill="#E74C3C" d="M122.51 16.7669L120.169 35.8449L13.837 35.3969L11.5613 16.761H122.51V16.7669Z"/></svg>