<svg xmlns="http://www.w3.org/2000/svg" width="96" height="96" fill="none" viewBox="0 0 96 96"><g clip-path="url(#clip0_6_169)"><path fill="#3498DB" d="M44 2.02C40.7 2.02 38 4.72 38 8.02C38 11.32 40.7 14.02 44 14.02C47.3 14.02 50 11.32 50 8.02C50 4.72 47.32 2.02 44 2.02ZM75 2.02C70.06 2.02 65.76 3.82 62.9 7.1C59.16 11.38 56.66 17.14 54.46 22.24C51.82 28.3 49.34 34.02 46.02 34.02C43.74 34.02 41.86 30.44 39.66 26.3C37.78 22.74 35.64 18.72 32.52 15.54C30.3 13.26 27.28 12 24.02 12C20.76 12 17.8 13.24 15.54 15.52C13.28 17.78 12.02 20.8 12.02 24C12.02 27.2 13.26 30.22 15.54 32.48C16.84 33.78 22.3 37.1 31.76 42.38L32.04 42.54C33.26 43.26 34.04 44.58 34.04 46C34.04 48.2 32.24 50 30.04 50H15C10.04 50 6 54.04 6 59C6 63.96 10.04 68 15 68C16.68 68 18.68 67.6 21 67.12C23.54 66.6 26.44 66 29 66C30.12 66 32 66.42 32 68C32 69.36 31.12 70.22 29.28 71.86C28.7 72.38 28.1 72.92 27.5 73.52C25.24 75.78 23.98 78.8 23.98 82C23.98 85.2 25.22 88.22 27.5 90.48C29.76 92.74 32.78 94 35.98 94C49.98 94 49.98 79.7 49.98 75C49.98 70.04 54.02 66 58.98 66C62.16 66 65.14 67.72 66.76 70.46L66.92 70.74C67.14 71.14 67.5 71.78 67.78 72.24C69.96 75.84 73.78 78 77.98 78C84.6 78 89.98 72.62 89.98 66C89.98 59.38 84.6 54 77.98 54H75.98C73.84 54 71.84 53.16 70.32 51.66C68.8 50.16 67.98 48.14 67.98 46C67.98 43.86 68.8 41.82 70.3 40.36C72.74 37.98 76.02 36.64 79.2 35.36C82.2 34.14 85.02 32.98 86.98 31.02C90.2 27.8 91.96 23.54 91.96 19C91.96 14.46 90.2 10.2 86.98 6.98C83.76 3.76 79.5 2 74.96 2L75 2.02ZM90 38.02C86.7 38.02 84 40.72 84 44.02C84 47.32 86.7 50.02 90 50.02C93.3 50.02 96 47.32 96 44.02C96 40.72 93.3 38.02 90 38.02ZM7 84.02C3.14 84.02 0 87.16 0 91.02C0 94.88 3.14 98.02 7 98.02C10.86 98.02 14 94.88 14 91.02C14 87.16 10.86 84.02 7 84.02ZM64 84.02C60.7 84.02 58 86.72 58 90.02C58 93.32 60.7 96.02 64 96.02C67.3 96.02 70 93.32 70 90.02C70 86.72 67.3 84.02 64 84.02Z"/></g><defs><clipPath id="clip0_6_169"><rect width="96" height="96" fill="#fff"/></clipPath></defs></svg>