<svg xmlns="http://www.w3.org/2000/svg" width="617" height="135" viewBox="0 0 617 135" fill="none">
    <g clip-path="url(#clip0)">
        <path d="M259.9 67.41C259.9 82.251 252.254 86.1499 245.785 86.1499C239.316 86.1499 231.669 82.251 231.669 67.41C231.669 52.569 239.598 48.6117 245.785 48.6117C251.971 48.6117 259.9 52.569 259.9 67.41ZM220.474 67.41C220.474 89.674 231.805 97.5885 245.785 97.5885C259.764 97.5885 271.096 89.674 271.096 67.41C271.096 45.1461 259.847 37.2315 245.785 37.2315C231.722 37.2315 220.474 45.1461 220.474 67.41Z" fill="#192B2A"/>
        <path d="M321.27 38.205C320.462 38.205 319.81 38.8573 319.81 39.6653V71.304C319.81 84.2029 312.509 86.3933 308.615 86.3933C304.721 86.3933 297.419 84.2029 297.419 71.304V39.6653C297.419 38.8573 296.767 38.205 295.959 38.205H287.684C286.876 38.205 286.224 38.8573 286.224 39.6653V71.304C286.224 91.5042 299.366 97.5885 308.615 97.5885C317.863 97.5885 331.005 91.9909 331.005 71.304V39.6653C331.005 38.8573 330.353 38.205 329.545 38.205H321.27Z" fill="#192B2A"/>
        <path d="M496.539 38.205C495.731 38.205 495.079 38.8573 495.079 39.6653V71.304C495.079 84.2029 487.778 86.3933 483.884 86.3933C479.99 86.3933 472.688 84.2029 472.688 71.304V39.6653C472.688 38.8573 472.036 38.205 471.228 38.205H462.953C462.145 38.205 461.493 38.8573 461.493 39.6653V71.304C461.493 91.5042 474.635 97.5885 483.884 97.5885C493.132 97.5885 506.274 91.9909 506.274 71.304V39.6653C506.274 38.8573 505.622 38.205 504.814 38.205H496.539Z" fill="#192B2A"/>
        <path d="M388.198 39.6653C388.198 38.8573 387.546 38.205 386.738 38.205H371.892H360.697H345.851C345.043 38.205 344.391 38.8573 344.391 39.6653V47.94C344.391 48.748 345.043 49.4003 345.851 49.4003H360.697V95.1548C360.697 95.9628 361.349 96.615 362.157 96.615H370.432C371.24 96.615 371.892 95.9628 371.892 95.1548V49.4003H386.738C387.546 49.4003 388.198 48.748 388.198 47.94V39.6653Z" fill="#192B2A"/>
        <path d="M617 39.6653C617 38.8573 616.348 38.205 615.54 38.205H600.694H589.499H574.653C573.845 38.205 573.192 38.8573 573.192 39.6653V47.94C573.192 48.748 573.845 49.4003 574.653 49.4003H589.499V95.1548C589.499 95.9628 590.151 96.615 590.959 96.615H599.234C600.042 96.615 600.694 95.9628 600.694 95.1548V49.4003H615.54C616.348 49.4003 617 48.748 617 47.94V39.6653Z" fill="#192B2A"/>
        <path d="M445.392 57.675C445.392 48.1834 440.281 38.205 425.922 38.205H412.779H403.044C402.241 38.205 401.584 38.8621 401.584 39.6653V77.145V95.1548C401.584 95.9628 402.236 96.615 403.044 96.615H411.319C412.127 96.615 412.779 95.9628 412.779 95.1548V77.145H425.922C426.481 77.145 427.026 77.1304 427.562 77.0964L433.86 95.6221C434.06 96.2159 434.62 96.6102 435.243 96.6102H443.352C444.355 96.6102 445.056 95.6269 444.734 94.6778L437.696 73.9714C443.211 70.2819 445.392 63.8762 445.392 57.675ZM412.779 65.9498V49.4003H423.975C428.939 49.3516 434.196 51.3473 434.196 57.675C434.196 64.0028 428.535 65.9498 423.975 65.9498H412.779Z" fill="#192B2A"/>
        <path d="M520.195 82.7378L527.784 78.4057C528.504 77.992 529.434 78.2646 529.804 79.0093C532.096 83.5653 536.18 86.1207 542.956 86.1207C550.058 86.1207 552.744 83.6286 552.744 80.3673C552.744 76.0207 548.519 74.3511 539.617 71.8443C530.461 69.2548 521.836 65.4922 521.836 54.3797C521.836 43.35 530.972 37.2364 541.242 37.2364C550.549 37.2364 557.792 41.4322 561.949 48.8113C562.348 49.5171 562.105 50.4127 561.399 50.8119L554.01 54.9784C553.319 55.3678 552.443 55.1391 552.039 54.4576C549.897 50.8021 546.714 48.7091 541.238 48.7091C536.273 48.7091 533.026 50.6999 533.026 54.0439C533.026 57.6361 535.674 59.5588 544.747 62.231C554.248 65.1564 563.935 68.2473 563.935 80.197C563.935 91.144 555.358 97.5886 542.605 97.5886C530.957 97.5886 523.106 92.5799 519.572 84.6021C519.28 83.9157 519.538 83.1077 520.195 82.7378Z" fill="#192B2A"/>
        <path fill-rule="evenodd" clip-rule="evenodd" d="M202.703 39.0568L187.827 64.8643C187.735 65.0249 187.501 65.0249 187.404 64.8643L172.529 39.0568C172.256 38.5895 171.594 38.205 171.054 38.205H161.738C160.579 38.205 160.102 39.0276 160.686 40.0303L182.021 76.9017V96.1283C182.021 96.9314 182.678 97.5885 183.481 97.5885H191.756C192.559 97.5885 193.216 96.9314 193.216 96.1283V76.9017L214.55 40.0303C215.129 39.0276 214.657 38.205 213.499 38.205H204.182C203.637 38.205 202.975 38.5895 202.703 39.0568Z" fill="#192B2A"/>
        <path d="M112.016 79.0093L87.4642 72.8762C82.3533 56.0493 66.7189 43.7978 48.2175 43.7978C36.8859 43.7978 26.6301 48.3927 19.2072 55.8205C14.5684 60.4544 8.16767 63.3165 1.09519 63.3165C0.773933 63.3165 0.452678 63.3067 0.131423 63.297C0.048675 64.6599 0 66.0277 0 67.41C0 85.1716 7.06275 101.283 18.5257 113.096C25.9973 120.933 36.5355 125.82 48.2175 125.82C59.5442 125.82 69.8 121.23 77.2181 113.807L112.016 79.0093Z" fill="#157577"/>
        <path d="M112.702 21.7139C105.236 13.8821 94.6974 9 83.0154 9C71.6887 9 61.4377 13.5901 54.0148 21.013L19.6259 55.4019C19.5772 55.4506 19.5285 55.4944 19.4798 55.5431C19.363 55.6648 19.2413 55.7816 19.1245 55.8984C15.9071 59.0818 11.8573 61.423 7.32568 62.5523C8.16289 64.178 9.06825 65.7648 10.032 67.3127C10.032 67.3127 10.032 67.3127 10.032 67.3176C10.2462 67.6632 10.4652 68.0039 10.6891 68.3446C10.7037 68.369 10.7183 68.3933 10.7378 68.4225C22.449 86.369 42.7027 98.2262 65.726 98.2262C84.388 98.2262 101.23 90.4334 113.174 77.9239C117.696 73.9276 123.635 71.5036 130.138 71.5036C130.459 71.5036 130.78 71.5134 131.101 71.5231C131.184 70.1651 131.233 68.7924 131.233 67.4101C131.233 49.6437 124.17 33.5322 112.702 21.7139Z" fill="#309DA5"/>
    </g>
    <defs>
        <clipPath id="clip0">
            <rect y="9" width="617" height="116.82" fill="white"/>
        </clipPath>
    </defs>
</svg>